<svg xmlns="http://www.w3.org/2000/svg" xmlns:xlink="http://www.w3.org/1999/xlink" version="1.0" x="0" y="0" width="2400" height="2400" viewBox="139.4 94.4 61.2 61.2" preserveAspectRatio="xMidYMid meet" color-interpolation-filters="sRGB"><g><defs><linearGradient id="92" x1="0%" y1="0%" x2="100%" y2="0%"><stop offset="0%" stop-color="#fa71cd"></stop> <stop offset="100%" stop-color="#9b59b6"></stop></linearGradient><linearGradient id="93" x1="0%" y1="0%" x2="100%" y2="0%"><stop offset="0%" stop-color="#f9d423"></stop> <stop offset="100%" stop-color="#f83600"></stop></linearGradient><linearGradient id="94" x1="0%" y1="0%" x2="100%" y2="0%"><stop offset="0%" stop-color="#0064d2"></stop> <stop offset="100%" stop-color="#1cb0f6"></stop></linearGradient><linearGradient id="95" x1="0%" y1="0%" x2="100%" y2="0%"><stop offset="0%" stop-color="#f00978"></stop> <stop offset="100%" stop-color="#3f51b1"></stop></linearGradient><linearGradient id="96" x1="0%" y1="0%" x2="100%" y2="0%"><stop offset="0%" stop-color="#7873f5"></stop> <stop offset="100%" stop-color="#ec77ab"></stop></linearGradient><linearGradient id="97" x1="0%" y1="0%" x2="100%" y2="0%"><stop offset="0%" stop-color="#f9d423"></stop> <stop offset="100%" stop-color="#e14fad"></stop></linearGradient><linearGradient id="98" x1="0%" y1="0%" x2="100%" y2="0%"><stop offset="0%" stop-color="#009efd"></stop> <stop offset="100%" stop-color="#2af598"></stop></linearGradient><linearGradient id="99" x1="0%" y1="0%" x2="100%" y2="0%"><stop offset="0%" stop-color="#ffcc00"></stop> <stop offset="100%" stop-color="#00b140"></stop></linearGradient><linearGradient id="100" x1="0%" y1="0%" x2="100%" y2="0%"><stop offset="0%" stop-color="#d51007"></stop> <stop offset="100%" stop-color="#ff8177"></stop></linearGradient><linearGradient id="102" x1="0%" y1="0%" x2="100%" y2="0%"><stop offset="0%" stop-color="#a2b6df"></stop> <stop offset="100%" stop-color="#0c3483"></stop></linearGradient><linearGradient id="103" x1="0%" y1="0%" x2="100%" y2="0%"><stop offset="0%" stop-color="#7ac5d8"></stop> <stop offset="100%" stop-color="#eea2a2"></stop></linearGradient><linearGradient id="104" x1="0%" y1="0%" x2="100%" y2="0%"><stop offset="0%" stop-color="#00ecbc"></stop> <stop offset="100%" stop-color="#007adf"></stop></linearGradient><linearGradient id="105" x1="0%" y1="0%" x2="100%" y2="0%"><stop offset="0%" stop-color="#b88746"></stop> <stop offset="100%" stop-color="#fdf5a6"></stop></linearGradient></defs><g class="imagesvg isNoFont" transform="translate(140,95)"><g><rect fill="#0c0c0c" fill-opacity="0" stroke-width="2" x="0" y="0" width="60" height="60" class="image-rect"></rect> <svg filter="url(#colors4478976997)" x="0" y="0" width="60" height="60" filtersec="colorsf2125714031" class="image-svg-svg primary" style="overflow: visible;"><svg xmlns="http://www.w3.org/2000/svg" viewBox="0 0 40.090003967285156 40.090003967285156"><g><g fill="#000000"><path d="M15.035 20.04l5.013-5.013 5.013 5.013-5.013 5.013zM20.04 2.5l3.76 3.76h2.51L20.04 0l-6.26 6.26h2.51l3.75-3.76zM28.81 8.77v2.51l2.51-.01-2.51-2.5zM6.26 16.29v-2.51L0 20.04l6.26 6.27V23.8L2.5 20.04l3.76-3.75zM11.28 8.77l-2.51 2.5 2.51.01V8.77zM20.04 37.58l-3.75-3.75h-2.51l6.26 6.26 6.27-6.26H23.8l-3.76 3.75zM11.28 31.32v-2.51H8.77l2.51 2.51zM33.83 13.78v2.51l3.75 3.75-3.75 3.76v2.51l6.26-6.27-6.26-6.26zM28.81 31.32l2.51-2.51h-2.51v2.51z"></path><path d="M20 15l2.51-2.5h5v-5h-5L20 5l-2.5 2.51h-5v5h5zm0-8.77L23.8 10 20 13.78 16.29 10zM32.57 17.54v-5h-5v5L25.06 20l2.5 2.51v5h5v-5L35.08 20zm-2.5 6.26L26.31 20l3.76-3.75L33.83 20z"></path><path d="M15 20l-2.5-2.5v-5h-5v5L5 20l2.51 2.51v5h5v-5zm-5 3.8L6.26 20 10 16.29 13.78 20zM20 25.06l-2.5 2.5h-5v5h5l2.5 2.52 2.51-2.51h5v-5h-5zm0 8.77l-3.75-3.76L20 26.31l3.76 3.76z"></path></g></g></svg></svg> <defs><filter id="colors4478976997"><feColorMatrix type="matrix" values="0 0 0 0 0.046875  0 0 0 0 0.046875  0 0 0 0 0.046875  0 0 0 1 0" class="icon-feColorMatrix "></feColorMatrix></filter> <filter id="colorsf2125714031"><feColorMatrix type="matrix" values="0 0 0 0 0.99609375  0 0 0 0 0.99609375  0 0 0 0 0.99609375  0 0 0 1 0" class="icon-fecolormatrix"></feColorMatrix></filter> <filter id="colorsb8792137679"><feColorMatrix type="matrix" values="0 0 0 0 0  0 0 0 0 0  0 0 0 0 0  0 0 0 1 0" class="icon-fecolormatrix"></feColorMatrix></filter></defs></g></g><defs v-gra="od"></defs></g></svg>